<?xml version="1.0" standalone="no"?>
<!DOCTYPE svg PUBLIC "-//W3C//DTD SVG 20010904//EN"
 "http://www.w3.org/TR/2001/REC-SVG-20010904/DTD/svg10.dtd">
<svg version="1.0" xmlns="http://www.w3.org/2000/svg"
 width="512.000000pt" height="512.000000pt" viewBox="0 0 512.000000 512.000000"
 preserveAspectRatio="xMidYMid meet">
<metadata>
Created by potrace 1.14, written by Peter Selinger 2001-2017
</metadata>
<g transform="translate(0.000000,512.000000) scale(0.100000,-0.100000)"
fill="#000000" stroke="none">
<path d="M180 5049 c-79 -32 -128 -112 -116 -190 9 -56 33 -94 79 -126 35 -24
49 -27 140 -29 56 -2 109 -3 118 -3 15 -1 16 -58 16 -630 l0 -630 -47 -29
c-55 -35 -94 -82 -116 -143 -13 -37 -16 -102 -16 -442 1 -281 4 -408 13 -435
33 -105 135 -183 240 -185 43 0 53 -5 51 -27 0 -3 -3 -48 -6 -101 -4 -53 -8
-105 -10 -116 -3 -12 -7 -58 -11 -104 -3 -46 -8 -100 -10 -119 -2 -19 -6 -69
-10 -110 -4 -41 -8 -91 -10 -110 -2 -19 -6 -71 -10 -115 -3 -44 -8 -91 -10
-105 -2 -14 -6 -59 -10 -100 -7 -97 -15 -189 -20 -220 -2 -14 -7 -67 -10 -117
l-7 -93 29 -11 c15 -6 55 -23 88 -39 33 -15 123 -57 200 -93 77 -35 184 -85
238 -111 54 -25 100 -46 101 -46 2 0 55 -24 117 -54 63 -29 139 -65 169 -79
30 -14 152 -70 270 -125 118 -55 241 -111 273 -126 52 -23 69 -26 177 -26
l120 0 1 28 c2 33 2 9 -5 182 -4 80 -8 159 -10 175 -2 17 -7 59 -11 95 -4 36
-8 72 -10 80 -1 8 -6 35 -9 60 -24 156 -100 464 -135 545 -5 11 -26 63 -46
115 -68 172 -219 438 -310 545 -14 17 -42 50 -63 74 -249 296 -608 513 -947
575 l-60 11 0 1078 c0 731 3 1077 10 1078 5 0 91 0 191 1 206 0 239 8 289 64
63 71 58 183 -12 246 -51 46 -70 48 -480 47 -230 0 -398 -4 -413 -10z"/>
<path d="M2549 5056 c-2 -2 -40 -7 -84 -10 -304 -27 -566 -99 -802 -221 -88
-45 -238 -137 -253 -155 -3 -3 -27 -24 -54 -45 -205 -165 -372 -405 -470 -677
-37 -102 -82 -289 -92 -383 -3 -33 -7 -72 -9 -86 l-3 -27 1955 0 1956 0 -6 71
c-15 179 -80 411 -162 584 -96 204 -245 390 -430 540 -244 197 -626 348 -984
390 -26 2 -59 7 -76 9 -36 6 -481 14 -486 10z m1437 -768 c-15 -115 -84 -209
-193 -264 -52 -26 -68 -28 -158 -29 -93 0 -105 2 -167 33 -111 55 -181 151
-192 266 -4 38 7 45 33 22 30 -26 116 -65 181 -82 122 -32 274 -17 383 36 59
30 87 46 100 59 18 18 20 13 13 -41z"/>
<path d="M781 3090 c-4 -3 -7 -43 -7 -89 l1 -85 70 -12 c39 -7 84 -14 100 -18
17 -3 71 -12 120 -20 50 -9 99 -18 110 -20 43 -8 192 -35 220 -39 25 -4 89
-15 235 -42 442 -79 715 -127 731 -128 19 -1 19 -23 19 -1289 l0 -1288 358 0
357 0 0 1281 c0 842 3 1283 10 1289 6 4 32 11 58 14 26 4 71 11 100 17 29 5
66 12 82 15 17 2 66 11 110 19 44 8 94 17 110 20 17 3 107 19 200 36 94 16
195 34 225 39 30 6 64 12 75 14 11 2 155 27 320 56 165 29 303 56 308 60 12
10 14 170 2 171 -31 5 -3908 3 -3914 -1z"/>
<path d="M4790 2529 c-136 -36 -197 -57 -284 -95 -515 -226 -916 -724 -1100
-1369 -29 -101 -71 -288 -81 -355 -3 -25 -8 -56 -10 -70 -3 -14 -7 -50 -11
-80 -3 -30 -7 -66 -9 -80 -6 -40 -17 -247 -19 -338 l-2 -82 122 0 c136 0 94
-14 415 135 75 35 169 79 210 98 41 19 99 46 129 60 105 49 515 239 570 264
30 14 89 41 130 60 41 19 105 48 143 66 l67 31 -5 51 c-3 27 -8 75 -11 105 -3
30 -7 73 -9 95 -3 22 -7 65 -10 95 -3 30 -7 75 -10 100 -2 25 -7 72 -10 105
-3 33 -8 76 -10 95 -2 19 -6 62 -10 95 -3 33 -7 80 -10 105 -10 104 -16 167
-20 205 -7 66 -15 147 -21 205 -5 55 -8 87 -19 190 -7 63 -11 104 -21 210 -3
41 -7 82 -9 90 -2 18 -46 22 -95 9z"/>
</g>
</svg>
